<svg xmlns:dc="http://purl.org/dc/elements/1.1/" xmlns:cc="http://creativecommons.org/ns#" xmlns:rdf="http://www.w3.org/1999/02/22-rdf-syntax-ns#" xmlns:svg="http://www.w3.org/2000/svg" xmlns="http://www.w3.org/2000/svg" xmlns:sodipodi="http://sodipodi.sourceforge.net/DTD/sodipodi-0.dtd" xmlns:inkscape="http://www.inkscape.org/namespaces/inkscape" version="1.1" x="0px" y="0px" viewBox="0 0 100 100"><g transform="translate(0,-952.36218)"><path style="text-indent:0;text-transform:none;direction:ltr;block-progression:tb;baseline-shift:baseline;color:#000000;enable-background:accumulate;" d="m 49.999999,956.36223 c -3.301805,0 -5.999895,2.69814 -5.999895,6 0,1.56353 0.60612,2.9921 1.59372,4.0625 -2.5195,0.20974 -4.59333,0.99966 -6.06239,2.46875 -1.73567,1.73566 -2.53119,4.30206 -2.53121,7.46876 -2.04864,0.081 -4.52371,0.6035 -6.093639,1.6874 -1.64777,1.1754 -2.52684,2.9457 -3.03119,5.0625 -2.06433,12.01659 -4.16335,24.04376 -6.24989,36.06246 -0.78593,4.0971 -1.07922,8.0372 0.62499,11.1563 1.60957,2.9459 5.03611,4.8015 10.749809,5 l 0,1.0184 c -1.99997,10e-5 -3.999929,2.0001 -3.999929,4.0128 l 0,7 c 5e-5,0.5236 0.47641,1 0.99998,1 l 39.999294,0 c 0.52357,0 0.99993,-0.4764 0.99998,-1 l 0,-7 c 0,-2.0127 -1.99997,-4.0127 -3.99993,-4.0127 l 0,-1.0185 c 5.7137,-0.1985 9.14024,-2.0541 10.74981,-5 1.70421,-3.1191 1.41091,-7.0592 0.62499,-11.1563 l -6.24989,-35.99996 c -0.44794,-2.3246 -1.62489,-4.0845 -3.0312,-5.125 -1.46961,-1.0482 -3.42839,-1.5559 -6.09364,-1.6562 -0.10997,-2.9829 -0.89119,-5.7952 -2.5312,-7.49996 -1.46907,-1.46909 -3.54288,-2.25902 -6.0624,-2.46875 0.98761,-1.0704 1.59373,-2.49897 1.59373,-4.0625 0,-3.30186 -2.6981,-6 -5.9999,-6 z m 0,2 c 2.22094,0 3.99993,1.77902 3.99993,4 0,2.22098 -1.77899,4 -3.99993,4 -2.220945,0 -3.999935,-1.77902 -3.999935,-4 0,-2.22098 1.77899,-4 3.999935,-4 z m -2.999945,10 5.999895,0 c 2.8333,-3e-5 4.76687,0.67321 6.03114,1.9375 0.94274,0.94271 1.5835,2.27101 1.84372,4.06251 l -21.749615,0 c 0.26021,-1.7915 0.90097,-3.1197 1.84371,-4.06251 1.26428,-1.2643 3.19788,-1.93753 6.03115,-1.9375 z m -7.99986,8.00001 21.999615,0 0,6 -21.999615,0 z m -1.99997,2.0312 c -9e-4,2.6653 0,5.3106 0,7.9687 10e-6,0.8013 0.2571,1.535 0.71874,2.125 -7.447859,11.70536 -6.61943,24.47396 0.65624,36.15616 -0.54349,0.1382 -1.0496,0.3364 -1.49997,0.5938 -1.10652,0.6323 -1.87495,1.7916 -1.87497,3.125 l 0,3 c -0.86325,0.3565 -1.50406,1.2169 -1.81247,1.9687 -5.380419,-0.1457 -7.954909,-1.6819 -9.187329,-3.9375 -1.29528,-2.3707 -1.16274,-5.9001 -0.40625,-9.8438 2.07392,-12.0082 4.16497,-24.02177 6.24989,-36.03117 0.44569,-1.8306 1.08153,-3.0326 2.218709,-3.8437 1.79657,-0.8806 3.41553,-1.2049 4.93741,-1.2812 z m 25.999545,0 c 2.36073,0.1036 3.926,0.5599 4.93741,1.2813 1.13718,0.8111 1.77302,2.0131 2.21871,3.8437 2.04675,12.0158 4.22633,24.01446 6.24989,36.03116 0.7565,3.9437 0.88904,7.4731 -0.40624,9.8438 -1.23243,2.2556 -3.80691,3.7918 -9.18734,3.9375 -0.32643,-0.8382 -1.05309,-1.4611 -1.81246,-1.9063 1.5e-4,-1.015 0,-2.043 0,-3.0625 2e-5,-1.3333 -0.76845,-2.4927 -1.87497,-3.125 -0.45037,-0.2573 -0.95649,-0.4555 -1.49997,-0.5937 7.27567,-11.6822 8.10409,-24.4509 0.65623,-36.15626 0.46166,-0.5899 0.71875,-1.3237 0.71874,-2.125 0.002,-2.6635 0,-5.2993 0,-7.9687 z m -23.999575,5.9688 21.999615,0 0,2 c -0.39924,1.8315 -2.56946,1.99 -3.99993,2 l -13.999755,0 c -1.94227,0.01 -3.4326,-0.479 -3.99993,-2 z m 0.37499,5.3125 c 1.02143,0.4573 2.24167,0.6875 3.62494,0.6875 l 13.999755,0 c 1.38328,0 2.6035,-0.2302 3.62493,-0.6875 7.15751,11.33016 6.20217,23.34356 -1.21872,34.71866 -1.75948,-0.078 -3.61073,-0.031 -5.40616,-0.031 l 0,-5 c 0.004,-0.4316 -0.30456,-0.8473 -0.71874,-0.9687 0.56599,-0.3407 1.09755,-0.7538 1.56248,-1.2188 1.2821,-1.2821 2.15621,-2.9791 2.15621,-4.8125 0,-2.25 -0.79074,-4.8627 -1.96872,-7.2187 -1.17798,-2.356 -2.71268,-4.4543 -4.46867,-5.62496 -0.22433,-0.1558 -0.51422,-0.2138 -0.78123,-0.15631 -0.447155,0.10021 -0.792275,0.5419 -0.781245,0.99997 0,1.5 -1.32313,3.6714 -2.81245,5.7813 -1.26505,1.9332 -3.15225,4.0152 -3.18744,6.2187 0,1.8334 0.8741,3.5304 2.15621,4.8125 0.46492,0.465 0.99648,0.8781 1.56247,1.2188 -0.41417,0.1214 -0.72264,0.5371 -0.71874,0.9687 l 0,5 c -1.77811,0.01 -3.66894,-0.027 -5.40615,0.031 -7.4209,-11.3751 -8.37624,-23.3885 -1.21873,-34.71867 z m 11.281055,12.68746 c 0.91597,0.9736 1.82066,2.2039 2.56246,3.6875 1.07198,2.144 1.78121,4.5625 1.78121,6.3125 0,1.1667 -0.62587,2.4384 -1.59372,3.4062 -0.96785,0.9679 -2.23954,1.5938 -3.40619,1.5938 -1.166655,0 -2.438335,-0.6259 -3.406195,-1.5938 -0.96785,-0.9678 -1.59372,-2.2395 -1.59372,-3.4062 0.42468,-1.9493 1.7545,-3.564 2.81245,-5.0625 1.09446,-1.5505 2.276965,-3.2005 2.843705,-4.9375 z m -2.656205,18 3.999935,0 0,4 -3.999935,0 z m -6.99988,6 17.999685,0 c 1.38888,0 2.4815,0.226 3.12495,0.5937 0.64345,0.3677 0.87499,0.7396 0.87498,1.4063 l 0,2 -25.999545,0 0,-2 c 10e-6,-0.6667 0.23154,-1.0386 0.87499,-1.4063 0.64345,-0.3677 1.7361,-0.5937 3.12494,-0.5937 z m -1.99996,6 21.999615,0 c 1.8098,0.078 3.46035,0.595 3.99993,2 l 0,2 -29.999475,0 0,-2 c 0.63906,-1.6305 2.04759,-1.9866 3.99993,-2 z m -3.99993,6 29.999475,0 c 1.99996,-0.013 3.99992,-0.013 3.99992,2 l 0,6 -37.999325,0 0,-6 c 0,-2.0128 1.99997,-2.0128 3.99993,-2 z" fill="#000000" fill-opacity="1" stroke="none" marker="none" visibility="visible" display="inline" overflow="visible"/></g></svg>