<svg xmlns:dc="http://purl.org/dc/elements/1.1/" xmlns:cc="http://creativecommons.org/ns#" xmlns:rdf="http://www.w3.org/1999/02/22-rdf-syntax-ns#" xmlns:svg="http://www.w3.org/2000/svg" xmlns="http://www.w3.org/2000/svg" xmlns:sodipodi="http://sodipodi.sourceforge.net/DTD/sodipodi-0.dtd" xmlns:inkscape="http://www.inkscape.org/namespaces/inkscape" version="1.1" x="0px" y="0px" viewBox="0 0 100 100"><g transform="translate(0,-952.36218)"><g transform="translate(20.003966,955.36021)"><path d="m 30.01181,0 c -3.862204,0 -7.015748,3.1535433 -7.015748,7.015748 0,1.2047244 0.318898,2.3031496 0.850394,3.295276 -1.984252,0.389763 -3.720472,1.204724 -5.031496,2.515748 -1.771653,1.771653 -2.622047,4.322834 -2.763779,7.228346 -2.338583,0.177165 -4.216536,0.744095 -5.704725,1.807087 -1.9133853,1.346456 -2.8700782,3.401574 -3.4370073,5.633858 -2.1259842,12.57874 -4.4291338,25.370079 -6.23622037,36.177165 -0.77952754,4.110236 -1.24015745,8.07874 0.70866137,11.374016 1.7362205,2.940945 5.2440944,4.570866 10.6299213,4.889764 l 0,0.531496 C 9.9212596,81.212598 8.07874,83.303149 8.0078738,85.003937 l 0,7.015748 c 0,1.027559 0.9566929,1.984252 2.0196852,1.984252 l 39.968503,0 c 1.027559,0 1.984252,-0.956693 1.984252,-1.984252 l 0,-7.015748 c -0.425197,-2.444882 -2.019685,-3.755906 -4.003937,-4.535433 l 0,-0.531496 c 5.385826,-0.318898 8.929133,-1.948819 10.665354,-4.889764 1.913386,-3.295276 1.452756,-7.26378 0.673228,-11.374016 C 57.153542,51.059055 54.956692,38.30315 53.078739,27.496063 52.547243,25.263779 51.555117,23.208661 49.677164,21.862205 48.188975,20.799213 46.275589,20.232283 43.97244,20.055118 43.795275,17.149606 42.909448,14.598425 41.137794,12.826772 39.826771,11.515748 38.125983,10.700787 36.141731,10.311024 36.708661,9.3188976 36.992125,8.2204724 36.992125,7.015748 36.992125,3.1535433 33.838582,0 30.01181,0 z m 0,4.003937 c 1.665355,0 2.976378,1.3110236 2.976378,3.011811 0,1.6653543 -1.311023,2.976378 -2.976378,2.976378 -1.700787,0 -3.011811,-1.3110237 -3.011811,-2.976378 0,-1.7007874 1.311024,-3.011811 3.011811,-3.011811 z m -3.011811,9.992126 5.988189,0 c 2.65748,0 4.287402,0.637795 5.314961,1.665354 0.566929,0.566929 1.027559,1.346457 1.311023,2.338583 l -19.240157,0 c 0.283465,-0.992126 0.708662,-1.771654 1.275591,-2.338583 1.027559,-1.027559 2.692913,-1.665354 5.350393,-1.665354 z m -6.980314,8.007874 19.984251,0 0,4.003937 -19.984251,0 z m -4.003937,2.090551 c 0,2.338583 0,4.606299 0,6.909449 0,0.885827 0.283464,1.73622 0.779527,2.444882 -6.342519,11.232283 -6.307086,24.094488 0.106299,35.291338 -1.594488,0.885827 -2.905511,2.267717 -2.905511,4.251969 0,0.956693 0,2.444882 0,3.011811 C 8.5748029,75.897638 5.7755904,74.65748 4.8188975,72.992126 3.7913385,71.291338 3.8267716,68.279527 4.570866,64.38189 6.7677164,51.803149 8.9645667,39.082677 10.842519,28.311024 c 0.389764,-1.665355 0.92126,-2.551182 1.807087,-3.188977 0.673228,-0.46063 1.700787,-0.850394 3.366142,-1.027559 z m 27.956692,0 c 1.665354,0.177165 2.692913,0.566929 3.366142,1.027559 0.885826,0.637795 1.417322,1.559055 1.842519,3.330709 2.090551,12.472441 4.464567,25.192913 6.200787,35.929134 0.744095,3.897637 0.814961,6.909448 -0.177165,8.610236 -0.992126,1.665354 -3.826771,2.905512 -9.248031,3.011811 0,-1.027559 0.03543,-1.913386 0.03543,-3.011811 -0.03543,-1.984252 -1.346457,-3.366142 -2.870079,-4.251969 6.377953,-11.19685 6.413386,-24.059055 0.07087,-35.291338 0.496063,-0.708662 0.779528,-1.559055 0.779528,-2.444882 0,-2.30315 0,-4.570866 0,-6.909449 z m -23.952755,5.917323 19.984251,0 c -0.03543,1.984252 -1.629921,1.984252 -3.011811,1.984252 l -13.996063,0 c -1.594488,-0.07087 -2.976377,-0.318898 -2.976377,-1.984252 z M 19.984251,36 39.968503,36 c 5.811023,10.452756 5.385827,21.649606 -1.098425,31.996063 l -3.862205,0 0,-4.003937 c 0,-0.850394 -0.637795,-1.700788 -1.488189,-1.913386 0.744095,-0.425197 1.417323,-0.956693 2.019685,-1.559055 1.417323,-1.417323 2.444882,-3.366142 2.444882,-5.527559 0,-2.480315 -0.850394,-5.173228 -2.090551,-7.653543 -1.240158,-2.444882 -2.799213,-4.677166 -4.783465,-6.023622 -0.389763,-0.248032 -0.885826,-0.354331 -1.346456,-0.318898 -0.956693,0.106299 -1.771654,1.027559 -1.771654,2.019685 0,0.992126 -1.169291,3.11811 -2.65748,5.208661 -1.38189,2.090552 -3.295275,4.464567 -3.330709,6.767717 0,2.161417 0.992126,4.110236 2.444882,5.527559 0.602363,0.602362 1.275591,1.133858 2.019685,1.559055 -0.850393,0.212598 -1.452756,1.062992 -1.452756,1.913386 l 0,4.003937 -3.897637,0 C 14.633858,57.649606 14.137795,46.452756 19.984251,36 z M 30.93307,46.913386 c 0.496063,0.673228 0.992126,1.381889 1.417323,2.232283 0.992126,2.019685 1.629921,4.358268 1.629921,5.846457 0,0.850394 -0.496063,1.877953 -1.311023,2.692913 -0.779528,0.814961 -1.84252,1.311024 -2.657481,1.311024 -0.850393,0 -1.913385,-0.496063 -2.728346,-1.311024 -0.814961,-0.81496 -1.275591,-1.842519 -1.275591,-2.692913 0.496063,-1.629921 1.665355,-3.153543 2.622048,-4.5 0.779527,-1.098425 1.629921,-2.30315 2.303149,-3.57874 z m -1.948819,19.098425 2.019685,0 0,1.984252 -2.019685,0 z M 21.011811,72 38.976377,72 c 1.984252,0 2.976378,0 3.011811,0.992126 l 0,1.027559 -23.988188,0 0,-1.027559 C 17.964566,72 18.992126,72 21.011811,72 z m -2.019685,5.988189 22.003936,0 c 1.169291,0.07087 2.090551,0.35433 2.976378,1.027559 l 0,0.992126 -27.956692,0 0,-0.992126 c 0.602362,-0.673229 1.877952,-0.885827 2.976378,-1.027559 z m -3.968504,6.023622 29.976377,0 c 1.169291,0.07087 2.055118,0.354331 2.976378,0.992126 l 0,4.996063 -35.964566,0 0,-4.996063 c 0.602362,-0.673229 1.877952,-0.850394 3.011811,-0.992126 z" style="" fill="#000000" fill-opacity="1" fill-rule="nonzero" stroke="none"/></g></g></svg>